solid 압출기정리220203
facet normal 1.0 0.0 0.0
  outer loop
    vertex 2.0000000000000004 82.46389354728366 2.0000000000000018
    vertex 2.0000000000000004 1.9999999999999998 45.0
    vertex 2.0000000000000004 1.9999999999999998 2.0000000000000018
  endloop
endfacet
facet normal 1.0 0.0 0.0
  outer loop
    vertex 2.0000000000000004 1.9999999999999998 45.0
    vertex 2.0000000000000004 82.46389354728366 2.0000000000000018
    vertex 2.0000000000000004 82.46389354728366 45.0
  endloop
endfacet
facet normal 1.0 0.0 0.0
  outer loop
    vertex 144.0 71.46389354728367 2.0000000000000018
    vertex 144.0 13.000000000000002 60.000000000000455
    vertex 144.0 13.000000000000002 2.0000000000000018
  endloop
endfacet
facet normal 1.0 0.0 0.0
  outer loop
    vertex 144.0 13.000000000000002 60.000000000000455
    vertex 144.0 71.46389354728367 2.0000000000000018
    vertex 144.0 34.0 45.00000000000046
  endloop
endfacet
facet normal 1.0 0.0 0.0
  outer loop
    vertex 144.0 34.0 45.00000000000046
    vertex 144.0 71.46389354728367 2.0000000000000018
    vertex 144.0 37.99999999999999 45.00000000000046
  endloop
endfacet
facet normal 1.0 0.0 0.0
  outer loop
    vertex 144.0 37.99999999999999 45.00000000000046
    vertex 144.0 71.46389354728367 2.0000000000000018
    vertex 144.0 37.99999999999999 60.000000000000455
  endloop
endfacet
facet normal 1.0 0.0 0.0
  outer loop
    vertex 144.0 37.99999999999999 60.000000000000455
    vertex 144.0 71.46389354728367 2.0000000000000018
    vertex 144.0 71.46389354728367 60.000000000000455
  endloop
endfacet
facet normal 1.0 0.0 0.0
  outer loop
    vertex 144.0 34.0 60.000000000000455
    vertex 144.0 13.000000000000002 60.000000000000455
    vertex 144.0 34.0 45.00000000000046
  endloop
endfacet
facet normal 1.0 0.0 0.0
  outer loop
    vertex 161.99999999999997 84.46389354728367 0.0
    vertex 161.99999999999997 0.0 45.0
    vertex 161.99999999999997 0.0 0.0
  endloop
endfacet
facet normal 1.0 0.0 0.0
  outer loop
    vertex 161.99999999999997 0.0 45.0
    vertex 161.99999999999997 84.46389354728367 0.0
    vertex 161.99999999999997 84.46389354728367 45.0
  endloop
endfacet
facet normal -1.0 0.0 0.0
  outer loop
    vertex 0.0 84.46389354728367 45.0
    vertex 0.0 0.0 0.0
    vertex 0.0 0.0 45.0
  endloop
endfacet
facet normal -1.0 0.0 0.0
  outer loop
    vertex 0.0 0.0 0.0
    vertex 0.0 84.46389354728367 45.0
    vertex 0.0 84.46389354728367 0.0
  endloop
endfacet
facet normal -0.0 -1.0 -0.0
  outer loop
    vertex 161.99999999999997 0.0 45.0
    vertex 0.0 0.0 0.0
    vertex 161.99999999999997 0.0 0.0
  endloop
endfacet
facet normal -0.0 -1.0 -0.0
  outer loop
    vertex 0.0 0.0 0.0
    vertex 161.99999999999997 0.0 45.0
    vertex 0.0 0.0 45.0
  endloop
endfacet
facet normal 0.0 1.0 0.0
  outer loop
    vertex 0.0 84.46389354728367 45.0
    vertex 161.99999999999997 84.46389354728367 0.0
    vertex 0.0 84.46389354728367 0.0
  endloop
endfacet
facet normal 0.0 1.0 0.0
  outer loop
    vertex 161.99999999999997 84.46389354728367 0.0
    vertex 0.0 84.46389354728367 45.0
    vertex 161.99999999999997 84.46389354728367 45.0
  endloop
endfacet
facet normal 0.0 -1.0 0.0
  outer loop
    vertex 159.99999999999997 82.46389354728366 45.0
    vertex 2.0000000000000004 82.46389354728366 2.0000000000000018
    vertex 159.99999999999997 82.46389354728366 2.0000000000000018
  endloop
endfacet
facet normal 0.0 -1.0 0.0
  outer loop
    vertex 2.0000000000000004 82.46389354728366 2.0000000000000018
    vertex 159.99999999999997 82.46389354728366 45.0
    vertex 2.0000000000000004 82.46389354728366 45.0
  endloop
endfacet
facet normal 0.0 0.0 1.0
  outer loop
    vertex 154.0 72.63238534589347 2.0000000000000018
    vertex 151.0 75.63238534589345 2.0000000000000018
    vertex 151.0 72.63238534589347 2.0000000000000018
  endloop
endfacet
facet normal 0.0 0.0 1.0
  outer loop
    vertex 2.0000000000000004 1.9999999999999998 2.0000000000000018
    vertex 18.0 13.000000000000002 2.0000000000000018
    vertex 2.0000000000000004 82.46389354728366 2.0000000000000018
  endloop
endfacet
facet normal 0.0 0.0 1.0
  outer loop
    vertex 18.0 13.000000000000002 2.0000000000000018
    vertex 2.0000000000000004 1.9999999999999998 2.0000000000000018
    vertex 159.99999999999997 1.9999999999999998 2.0000000000000018
  endloop
endfacet
facet normal 0.0 0.0 1.0
  outer loop
    vertex 18.0 13.000000000000002 2.0000000000000018
    vertex 159.99999999999997 1.9999999999999998 2.0000000000000018
    vertex 144.0 13.000000000000002 2.0000000000000018
  endloop
endfacet
facet normal 0.0 0.0 1.0
  outer loop
    vertex 144.0 13.000000000000002 2.0000000000000018
    vertex 159.99999999999997 1.9999999999999998 2.0000000000000018
    vertex 144.0 71.46389354728367 2.0000000000000018
  endloop
endfacet
facet normal 0.0 0.0 1.0
  outer loop
    vertex 144.0 71.46389354728367 2.0000000000000018
    vertex 159.99999999999997 1.9999999999999998 2.0000000000000018
    vertex 149.49999999999997 71.13238534589347 2.0000000000000018
  endloop
endfacet
facet normal 0.0 0.0 1.0
  outer loop
    vertex 149.49999999999997 71.13238534589347 2.0000000000000018
    vertex 159.99999999999997 1.9999999999999998 2.0000000000000018
    vertex 154.0 71.13238534589347 2.0000000000000018
  endloop
endfacet
facet normal 0.0 0.0 1.0
  outer loop
    vertex 154.0 71.13238534589347 2.0000000000000018
    vertex 159.99999999999997 1.9999999999999998 2.0000000000000018
    vertex 154.0 72.63238534589347 2.0000000000000018
  endloop
endfacet
facet normal 0.0 0.0 1.0
  outer loop
    vertex 2.0000000000000004 82.46389354728366 2.0000000000000018
    vertex 18.0 71.46389354728367 2.0000000000000018
    vertex 159.99999999999997 82.46389354728366 2.0000000000000018
  endloop
endfacet
facet normal 0.0 0.0 1.0
  outer loop
    vertex 18.0 71.46389354728367 2.0000000000000018
    vertex 2.0000000000000004 82.46389354728366 2.0000000000000018
    vertex 18.0 13.000000000000002 2.0000000000000018
  endloop
endfacet
facet normal 0.0 0.0 1.0
  outer loop
    vertex 159.99999999999997 82.46389354728366 2.0000000000000018
    vertex 18.0 71.46389354728367 2.0000000000000018
    vertex 149.49999999999997 75.63238534589345 2.0000000000000018
  endloop
endfacet
facet normal 0.0 0.0 1.0
  outer loop
    vertex 149.49999999999997 75.63238534589345 2.0000000000000018
    vertex 18.0 71.46389354728367 2.0000000000000018
    vertex 144.0 71.46389354728367 2.0000000000000018
  endloop
endfacet
facet normal 0.0 0.0 1.0
  outer loop
    vertex 149.49999999999997 75.63238534589345 2.0000000000000018
    vertex 144.0 71.46389354728367 2.0000000000000018
    vertex 149.49999999999997 71.13238534589347 2.0000000000000018
  endloop
endfacet
facet normal 0.0 0.0 1.0
  outer loop
    vertex 159.99999999999997 82.46389354728366 2.0000000000000018
    vertex 149.49999999999997 75.63238534589345 2.0000000000000018
    vertex 151.0 75.63238534589345 2.0000000000000018
  endloop
endfacet
facet normal 0.0 0.0 1.0
  outer loop
    vertex 159.99999999999997 82.46389354728366 2.0000000000000018
    vertex 151.0 75.63238534589345 2.0000000000000018
    vertex 154.0 72.63238534589347 2.0000000000000018
  endloop
endfacet
facet normal 0.0 0.0 1.0
  outer loop
    vertex 159.99999999999997 82.46389354728366 2.0000000000000018
    vertex 154.0 72.63238534589347 2.0000000000000018
    vertex 159.99999999999997 1.9999999999999998 2.0000000000000018
  endloop
endfacet
facet normal 0.0 1.0 0.0
  outer loop
    vertex 2.0000000000000004 1.9999999999999998 45.0
    vertex 159.99999999999997 1.9999999999999998 2.0000000000000018
    vertex 2.0000000000000004 1.9999999999999998 2.0000000000000018
  endloop
endfacet
facet normal 0.0 1.0 0.0
  outer loop
    vertex 159.99999999999997 1.9999999999999998 2.0000000000000018
    vertex 2.0000000000000004 1.9999999999999998 45.0
    vertex 159.99999999999997 1.9999999999999998 45.0
  endloop
endfacet
facet normal -1.0 0.0 0.0
  outer loop
    vertex 159.99999999999997 82.46389354728366 45.0
    vertex 159.99999999999997 1.9999999999999998 2.0000000000000018
    vertex 159.99999999999997 1.9999999999999998 45.0
  endloop
endfacet
facet normal -1.0 0.0 0.0
  outer loop
    vertex 159.99999999999997 1.9999999999999998 2.0000000000000018
    vertex 159.99999999999997 82.46389354728366 45.0
    vertex 159.99999999999997 82.46389354728366 2.0000000000000018
  endloop
endfacet
facet normal 0.0 0.0 -1.0
  outer loop
    vertex 161.99999999999997 84.46389354728367 0.0
    vertex 0.0 0.0 0.0
    vertex 0.0 84.46389354728367 0.0
  endloop
endfacet
facet normal 0.0 0.0 -1.0
  outer loop
    vertex 0.0 0.0 0.0
    vertex 161.99999999999997 84.46389354728367 0.0
    vertex 161.99999999999997 0.0 0.0
  endloop
endfacet
facet normal 0.0 0.0 1.0
  outer loop
    vertex 0.0 0.0 45.0
    vertex 2.0000000000000004 1.9999999999999998 45.0
    vertex 0.0 84.46389354728367 45.0
  endloop
endfacet
facet normal 0.0 0.0 1.0
  outer loop
    vertex 2.0000000000000004 1.9999999999999998 45.0
    vertex 0.0 0.0 45.0
    vertex 161.99999999999997 0.0 45.0
  endloop
endfacet
facet normal 0.0 0.0 1.0
  outer loop
    vertex 2.0000000000000004 1.9999999999999998 45.0
    vertex 161.99999999999997 0.0 45.0
    vertex 159.99999999999997 1.9999999999999998 45.0
  endloop
endfacet
facet normal 0.0 0.0 1.0
  outer loop
    vertex 159.99999999999997 1.9999999999999998 45.0
    vertex 161.99999999999997 0.0 45.0
    vertex 159.99999999999997 82.46389354728366 45.0
  endloop
endfacet
facet normal 0.0 0.0 1.0
  outer loop
    vertex 0.0 84.46389354728367 45.0
    vertex 2.0000000000000004 82.46389354728366 45.0
    vertex 161.99999999999997 84.46389354728367 45.0
  endloop
endfacet
facet normal 0.0 0.0 1.0
  outer loop
    vertex 2.0000000000000004 82.46389354728366 45.0
    vertex 0.0 84.46389354728367 45.0
    vertex 2.0000000000000004 1.9999999999999998 45.0
  endloop
endfacet
facet normal 0.0 0.0 1.0
  outer loop
    vertex 161.99999999999997 84.46389354728367 45.0
    vertex 2.0000000000000004 82.46389354728366 45.0
    vertex 159.99999999999997 82.46389354728366 45.0
  endloop
endfacet
facet normal 0.0 0.0 1.0
  outer loop
    vertex 161.99999999999997 84.46389354728367 45.0
    vertex 159.99999999999997 82.46389354728366 45.0
    vertex 161.99999999999997 0.0 45.0
  endloop
endfacet
facet normal 0.0 -1.0 0.0
  outer loop
    vertex 143.0 70.46389354728366 60.000000000000455
    vertex 19.0 70.46389354728366 1.999999999998936
    vertex 143.0 70.46389354728366 1.999999999998936
  endloop
endfacet
facet normal 0.0 -1.0 0.0
  outer loop
    vertex 19.0 70.46389354728366 1.999999999998936
    vertex 143.0 70.46389354728366 60.000000000000455
    vertex 19.0 70.46389354728366 60.000000000000455
  endloop
endfacet
facet normal 0.0 0.0 1.0
  outer loop
    vertex 136.99999999999997 61.463893547283675 1.999999999998936
    vertex 133.99999999999997 64.46389354728367 1.999999999998936
    vertex 133.99999999999997 61.463893547283675 1.999999999998936
  endloop
endfacet
facet normal 0.0 0.0 1.0
  outer loop
    vertex 143.0 14.0 1.999999999998936
    vertex 19.0 70.46389354728366 1.999999999998936
    vertex 19.0 14.0 1.999999999998936
  endloop
endfacet
facet normal 0.0 0.0 1.0
  outer loop
    vertex 19.0 70.46389354728366 1.999999999998936
    vertex 143.0 14.0 1.999999999998936
    vertex 132.5 59.963893547283675 1.999999999998936
  endloop
endfacet
facet normal 0.0 0.0 1.0
  outer loop
    vertex 132.5 59.963893547283675 1.999999999998936
    vertex 143.0 14.0 1.999999999998936
    vertex 136.99999999999997 59.963893547283675 1.999999999998936
  endloop
endfacet
facet normal 0.0 0.0 1.0
  outer loop
    vertex 136.99999999999997 59.963893547283675 1.999999999998936
    vertex 143.0 14.0 1.999999999998936
    vertex 136.99999999999997 61.463893547283675 1.999999999998936
  endloop
endfacet
facet normal 0.0 0.0 1.0
  outer loop
    vertex 19.0 70.46389354728366 1.999999999998936
    vertex 132.5 64.46389354728367 1.999999999998936
    vertex 143.0 70.46389354728366 1.999999999998936
  endloop
endfacet
facet normal 0.0 0.0 1.0
  outer loop
    vertex 132.5 64.46389354728367 1.999999999998936
    vertex 19.0 70.46389354728366 1.999999999998936
    vertex 132.5 59.963893547283675 1.999999999998936
  endloop
endfacet
facet normal 0.0 0.0 1.0
  outer loop
    vertex 143.0 70.46389354728366 1.999999999998936
    vertex 132.5 64.46389354728367 1.999999999998936
    vertex 133.99999999999997 64.46389354728367 1.999999999998936
  endloop
endfacet
facet normal 0.0 0.0 1.0
  outer loop
    vertex 143.0 70.46389354728366 1.999999999998936
    vertex 133.99999999999997 64.46389354728367 1.999999999998936
    vertex 136.99999999999997 61.463893547283675 1.999999999998936
  endloop
endfacet
facet normal 0.0 0.0 1.0
  outer loop
    vertex 143.0 70.46389354728366 1.999999999998936
    vertex 136.99999999999997 61.463893547283675 1.999999999998936
    vertex 143.0 14.0 1.999999999998936
  endloop
endfacet
facet normal 1.0 0.0 0.0
  outer loop
    vertex 19.0 70.46389354728366 1.999999999998936
    vertex 19.0 14.0 60.000000000000455
    vertex 19.0 14.0 1.999999999998936
  endloop
endfacet
facet normal 1.0 0.0 0.0
  outer loop
    vertex 19.0 14.0 60.000000000000455
    vertex 19.0 70.46389354728366 1.999999999998936
    vertex 19.0 34.0 45.00000000000046
  endloop
endfacet
facet normal 1.0 0.0 0.0
  outer loop
    vertex 19.0 34.0 45.00000000000046
    vertex 19.0 70.46389354728366 1.999999999998936
    vertex 19.0 37.99999999999999 45.00000000000046
  endloop
endfacet
facet normal 1.0 0.0 0.0
  outer loop
    vertex 19.0 37.99999999999999 45.00000000000046
    vertex 19.0 70.46389354728366 1.999999999998936
    vertex 19.0 37.99999999999999 60.000000000000455
  endloop
endfacet
facet normal 1.0 0.0 0.0
  outer loop
    vertex 19.0 37.99999999999999 60.000000000000455
    vertex 19.0 70.46389354728366 1.999999999998936
    vertex 19.0 70.46389354728366 60.000000000000455
  endloop
endfacet
facet normal 1.0 0.0 0.0
  outer loop
    vertex 19.0 34.0 60.000000000000455
    vertex 19.0 14.0 60.000000000000455
    vertex 19.0 34.0 45.00000000000046
  endloop
endfacet
facet normal 0.0 1.0 0.0
  outer loop
    vertex 19.0 14.0 60.000000000000455
    vertex 143.0 14.0 1.999999999998936
    vertex 19.0 14.0 1.999999999998936
  endloop
endfacet
facet normal 0.0 1.0 0.0
  outer loop
    vertex 143.0 14.0 1.999999999998936
    vertex 19.0 14.0 60.000000000000455
    vertex 143.0 14.0 60.000000000000455
  endloop
endfacet
facet normal -1.0 0.0 0.0
  outer loop
    vertex 143.0 70.46389354728366 60.000000000000455
    vertex 143.0 37.99999999999999 45.00000000000046
    vertex 143.0 37.99999999999999 60.000000000000455
  endloop
endfacet
facet normal -1.0 0.0 0.0
  outer loop
    vertex 143.0 34.0 60.000000000000455
    vertex 143.0 14.0 1.999999999998936
    vertex 143.0 14.0 60.000000000000455
  endloop
endfacet
facet normal -1.0 0.0 0.0
  outer loop
    vertex 143.0 14.0 1.999999999998936
    vertex 143.0 34.0 60.000000000000455
    vertex 143.0 34.0 45.00000000000046
  endloop
endfacet
facet normal -1.0 0.0 0.0
  outer loop
    vertex 143.0 14.0 1.999999999998936
    vertex 143.0 34.0 45.00000000000046
    vertex 143.0 70.46389354728366 1.999999999998936
  endloop
endfacet
facet normal -1.0 0.0 0.0
  outer loop
    vertex 143.0 70.46389354728366 1.999999999998936
    vertex 143.0 34.0 45.00000000000046
    vertex 143.0 37.99999999999999 45.00000000000046
  endloop
endfacet
facet normal -1.0 0.0 0.0
  outer loop
    vertex 143.0 70.46389354728366 1.999999999998936
    vertex 143.0 37.99999999999999 45.00000000000046
    vertex 143.0 70.46389354728366 60.000000000000455
  endloop
endfacet
facet normal -1.0 0.0 0.0
  outer loop
    vertex 18.0 71.46389354728367 60.000000000000455
    vertex 18.0 37.99999999999999 45.00000000000046
    vertex 18.0 37.99999999999999 60.000000000000455
  endloop
endfacet
facet normal -1.0 0.0 0.0
  outer loop
    vertex 18.0 34.0 60.000000000000455
    vertex 18.0 13.000000000000002 2.0000000000000018
    vertex 18.0 13.000000000000002 60.000000000000455
  endloop
endfacet
facet normal -1.0 0.0 0.0
  outer loop
    vertex 18.0 13.000000000000002 2.0000000000000018
    vertex 18.0 34.0 60.000000000000455
    vertex 18.0 34.0 45.00000000000046
  endloop
endfacet
facet normal -1.0 0.0 0.0
  outer loop
    vertex 18.0 13.000000000000002 2.0000000000000018
    vertex 18.0 34.0 45.00000000000046
    vertex 18.0 71.46389354728367 2.0000000000000018
  endloop
endfacet
facet normal -1.0 0.0 0.0
  outer loop
    vertex 18.0 71.46389354728367 2.0000000000000018
    vertex 18.0 34.0 45.00000000000046
    vertex 18.0 37.99999999999999 45.00000000000046
  endloop
endfacet
facet normal -1.0 0.0 0.0
  outer loop
    vertex 18.0 71.46389354728367 2.0000000000000018
    vertex 18.0 37.99999999999999 45.00000000000046
    vertex 18.0 71.46389354728367 60.000000000000455
  endloop
endfacet
facet normal 0.0 -1.0 0.0
  outer loop
    vertex 144.0 13.000000000000002 60.000000000000455
    vertex 18.0 13.000000000000002 2.0000000000000018
    vertex 144.0 13.000000000000002 2.0000000000000018
  endloop
endfacet
facet normal 0.0 -1.0 0.0
  outer loop
    vertex 18.0 13.000000000000002 2.0000000000000018
    vertex 144.0 13.000000000000002 60.000000000000455
    vertex 18.0 13.000000000000002 60.000000000000455
  endloop
endfacet
facet normal 0.0 0.0 1.0
  outer loop
    vertex 144.0 37.99999999999999 60.000000000000455
    vertex 143.0 70.46389354728366 60.000000000000455
    vertex 143.0 37.99999999999999 60.000000000000455
  endloop
endfacet
facet normal 0.0 0.0 1.0
  outer loop
    vertex 19.0 37.99999999999999 60.000000000000455
    vertex 18.0 71.46389354728367 60.000000000000455
    vertex 18.0 37.99999999999999 60.000000000000455
  endloop
endfacet
facet normal 0.0 0.0 1.0
  outer loop
    vertex 18.0 71.46389354728367 60.000000000000455
    vertex 19.0 37.99999999999999 60.000000000000455
    vertex 19.0 70.46389354728366 60.000000000000455
  endloop
endfacet
facet normal 0.0 0.0 1.0
  outer loop
    vertex 18.0 71.46389354728367 60.000000000000455
    vertex 19.0 70.46389354728366 60.000000000000455
    vertex 144.0 71.46389354728367 60.000000000000455
  endloop
endfacet
facet normal 0.0 0.0 1.0
  outer loop
    vertex 144.0 71.46389354728367 60.000000000000455
    vertex 19.0 70.46389354728366 60.000000000000455
    vertex 143.0 70.46389354728366 60.000000000000455
  endloop
endfacet
facet normal 0.0 0.0 1.0
  outer loop
    vertex 144.0 71.46389354728367 60.000000000000455
    vertex 143.0 70.46389354728366 60.000000000000455
    vertex 144.0 37.99999999999999 60.000000000000455
  endloop
endfacet
facet normal 0.0 1.0 0.0
  outer loop
    vertex 18.0 71.46389354728367 60.000000000000455
    vertex 144.0 71.46389354728367 2.0000000000000018
    vertex 18.0 71.46389354728367 2.0000000000000018
  endloop
endfacet
facet normal 0.0 1.0 0.0
  outer loop
    vertex 144.0 71.46389354728367 2.0000000000000018
    vertex 18.0 71.46389354728367 60.000000000000455
    vertex 144.0 71.46389354728367 60.000000000000455
  endloop
endfacet
facet normal 0.0 1.0 0.0
  outer loop
    vertex 133.99999999999997 61.463893547283675 31.999999999998938
    vertex 136.99999999999997 61.463893547283675 1.999999999998936
    vertex 133.99999999999997 61.463893547283675 1.999999999998936
  endloop
endfacet
facet normal 0.0 1.0 0.0
  outer loop
    vertex 136.99999999999997 61.463893547283675 1.999999999998936
    vertex 133.99999999999997 61.463893547283675 31.999999999998938
    vertex 136.99999999999997 61.463893547283675 31.999999999998938
  endloop
endfacet
facet normal 0.0 1.0 0.0
  outer loop
    vertex 18.0 34.0 60.000000000000455
    vertex 19.0 34.0 45.00000000000046
    vertex 18.0 34.0 45.00000000000046
  endloop
endfacet
facet normal 0.0 1.0 0.0
  outer loop
    vertex 19.0 34.0 45.00000000000046
    vertex 18.0 34.0 60.000000000000455
    vertex 19.0 34.0 60.000000000000455
  endloop
endfacet
facet normal 0.0 -1.0 0.0
  outer loop
    vertex 136.99999999999997 59.963893547283675 31.999999999998938
    vertex 132.5 59.963893547283675 1.999999999998936
    vertex 136.99999999999997 59.963893547283675 1.999999999998936
  endloop
endfacet
facet normal 0.0 -1.0 0.0
  outer loop
    vertex 132.5 59.963893547283675 1.999999999998936
    vertex 136.99999999999997 59.963893547283675 31.999999999998938
    vertex 132.5 59.963893547283675 31.999999999998938
  endloop
endfacet
facet normal 0.0 0.0 1.0
  outer loop
    vertex 149.49999999999997 71.13238534589347 31.99999999999893
    vertex 151.0 72.63238534589347 31.99999999999893
    vertex 149.49999999999997 75.63238534589345 31.99999999999893
  endloop
endfacet
facet normal 0.0 0.0 1.0
  outer loop
    vertex 151.0 72.63238534589347 31.99999999999893
    vertex 149.49999999999997 71.13238534589347 31.99999999999893
    vertex 154.0 71.13238534589347 31.99999999999893
  endloop
endfacet
facet normal 0.0 0.0 1.0
  outer loop
    vertex 151.0 72.63238534589347 31.99999999999893
    vertex 154.0 71.13238534589347 31.99999999999893
    vertex 154.0 72.63238534589347 31.99999999999893
  endloop
endfacet
facet normal 0.0 0.0 1.0
  outer loop
    vertex 151.0 75.63238534589345 31.99999999999893
    vertex 149.49999999999997 75.63238534589345 31.99999999999893
    vertex 151.0 72.63238534589347 31.99999999999893
  endloop
endfacet
facet normal 0.0 1.0 0.0
  outer loop
    vertex 151.0 72.63238534589347 31.99999999999893
    vertex 154.0 72.63238534589347 2.0000000000000018
    vertex 151.0 72.63238534589347 2.0000000000000018
  endloop
endfacet
facet normal 0.0 1.0 0.0
  outer loop
    vertex 154.0 72.63238534589347 2.0000000000000018
    vertex 151.0 72.63238534589347 31.99999999999893
    vertex 154.0 72.63238534589347 31.99999999999893
  endloop
endfacet
facet normal 1.0 0.0 0.0
  outer loop
    vertex 151.0 75.63238534589345 2.0000000000000018
    vertex 151.0 72.63238534589347 31.99999999999893
    vertex 151.0 72.63238534589347 2.0000000000000018
  endloop
endfacet
facet normal 1.0 0.0 0.0
  outer loop
    vertex 151.0 72.63238534589347 31.99999999999893
    vertex 151.0 75.63238534589345 2.0000000000000018
    vertex 151.0 75.63238534589345 31.99999999999893
  endloop
endfacet
facet normal -1.0 0.0 0.0
  outer loop
    vertex 132.5 64.46389354728367 31.999999999998938
    vertex 132.5 59.963893547283675 1.999999999998936
    vertex 132.5 59.963893547283675 31.999999999998938
  endloop
endfacet
facet normal -1.0 0.0 0.0
  outer loop
    vertex 132.5 59.963893547283675 1.999999999998936
    vertex 132.5 64.46389354728367 31.999999999998938
    vertex 132.5 64.46389354728367 1.999999999998936
  endloop
endfacet
facet normal 1.0 0.0 0.0
  outer loop
    vertex 154.0 72.63238534589347 2.0000000000000018
    vertex 154.0 71.13238534589347 31.99999999999893
    vertex 154.0 71.13238534589347 2.0000000000000018
  endloop
endfacet
facet normal 1.0 0.0 0.0
  outer loop
    vertex 154.0 71.13238534589347 31.99999999999893
    vertex 154.0 72.63238534589347 2.0000000000000018
    vertex 154.0 72.63238534589347 31.99999999999893
  endloop
endfacet
facet normal -0.0 -1.0 -0.0
  outer loop
    vertex 19.0 37.99999999999999 60.000000000000455
    vertex 18.0 37.99999999999999 45.00000000000046
    vertex 19.0 37.99999999999999 45.00000000000046
  endloop
endfacet
facet normal -0.0 -1.0 -0.0
  outer loop
    vertex 18.0 37.99999999999999 45.00000000000046
    vertex 19.0 37.99999999999999 60.000000000000455
    vertex 18.0 37.99999999999999 60.000000000000455
  endloop
endfacet
facet normal 0.0 1.0 0.0
  outer loop
    vertex 149.49999999999997 75.63238534589345 31.99999999999893
    vertex 151.0 75.63238534589345 2.0000000000000018
    vertex 149.49999999999997 75.63238534589345 2.0000000000000018
  endloop
endfacet
facet normal 0.0 1.0 0.0
  outer loop
    vertex 151.0 75.63238534589345 2.0000000000000018
    vertex 149.49999999999997 75.63238534589345 31.99999999999893
    vertex 151.0 75.63238534589345 31.99999999999893
  endloop
endfacet
facet normal -1.0 -0.0 -0.0
  outer loop
    vertex 149.49999999999997 75.63238534589345 31.99999999999893
    vertex 149.49999999999997 71.13238534589347 2.0000000000000018
    vertex 149.49999999999997 71.13238534589347 31.99999999999893
  endloop
endfacet
facet normal -1.0 -0.0 -0.0
  outer loop
    vertex 149.49999999999997 71.13238534589347 2.0000000000000018
    vertex 149.49999999999997 75.63238534589345 31.99999999999893
    vertex 149.49999999999997 75.63238534589345 2.0000000000000018
  endloop
endfacet
facet normal 0.0 -1.0 0.0
  outer loop
    vertex 154.0 71.13238534589347 31.99999999999893
    vertex 149.49999999999997 71.13238534589347 2.0000000000000018
    vertex 154.0 71.13238534589347 2.0000000000000018
  endloop
endfacet
facet normal 0.0 -1.0 0.0
  outer loop
    vertex 149.49999999999997 71.13238534589347 2.0000000000000018
    vertex 154.0 71.13238534589347 31.99999999999893
    vertex 149.49999999999997 71.13238534589347 31.99999999999893
  endloop
endfacet
facet normal 0.0 0.0 1.0
  outer loop
    vertex 144.0 34.0 45.00000000000046
    vertex 143.0 37.99999999999999 45.00000000000046
    vertex 143.0 34.0 45.00000000000046
  endloop
endfacet
facet normal 0.0 0.0 1.0
  outer loop
    vertex 143.0 37.99999999999999 45.00000000000046
    vertex 144.0 34.0 45.00000000000046
    vertex 144.0 37.99999999999999 45.00000000000046
  endloop
endfacet
facet normal 0.0 1.0 0.0
  outer loop
    vertex 143.0 34.0 60.000000000000455
    vertex 144.0 34.0 45.00000000000046
    vertex 143.0 34.0 45.00000000000046
  endloop
endfacet
facet normal 0.0 1.0 0.0
  outer loop
    vertex 144.0 34.0 45.00000000000046
    vertex 143.0 34.0 60.000000000000455
    vertex 144.0 34.0 60.000000000000455
  endloop
endfacet
facet normal 0.0 0.0 1.0
  outer loop
    vertex 19.0 34.0 45.00000000000046
    vertex 18.0 37.99999999999999 45.00000000000046
    vertex 18.0 34.0 45.00000000000046
  endloop
endfacet
facet normal 0.0 0.0 1.0
  outer loop
    vertex 18.0 37.99999999999999 45.00000000000046
    vertex 19.0 34.0 45.00000000000046
    vertex 19.0 37.99999999999999 45.00000000000046
  endloop
endfacet
facet normal 0.0 0.0 1.0
  outer loop
    vertex 133.99999999999997 64.46389354728367 31.999999999998938
    vertex 132.5 64.46389354728367 31.999999999998938
    vertex 133.99999999999997 61.463893547283675 31.999999999998938
  endloop
endfacet
facet normal 0.0 0.0 1.0
  outer loop
    vertex 132.5 59.963893547283675 31.999999999998938
    vertex 133.99999999999997 61.463893547283675 31.999999999998938
    vertex 132.5 64.46389354728367 31.999999999998938
  endloop
endfacet
facet normal 0.0 0.0 1.0
  outer loop
    vertex 133.99999999999997 61.463893547283675 31.999999999998938
    vertex 132.5 59.963893547283675 31.999999999998938
    vertex 136.99999999999997 59.963893547283675 31.999999999998938
  endloop
endfacet
facet normal 0.0 0.0 1.0
  outer loop
    vertex 133.99999999999997 61.463893547283675 31.999999999998938
    vertex 136.99999999999997 59.963893547283675 31.999999999998938
    vertex 136.99999999999997 61.463893547283675 31.999999999998938
  endloop
endfacet
facet normal -0.0 -1.0 -0.0
  outer loop
    vertex 144.0 37.99999999999999 60.000000000000455
    vertex 143.0 37.99999999999999 45.00000000000046
    vertex 144.0 37.99999999999999 45.00000000000046
  endloop
endfacet
facet normal -0.0 -1.0 -0.0
  outer loop
    vertex 143.0 37.99999999999999 45.00000000000046
    vertex 144.0 37.99999999999999 60.000000000000455
    vertex 143.0 37.99999999999999 60.000000000000455
  endloop
endfacet
facet normal 1.0 0.0 0.0
  outer loop
    vertex 133.99999999999997 64.46389354728367 1.999999999998936
    vertex 133.99999999999997 61.463893547283675 31.999999999998938
    vertex 133.99999999999997 61.463893547283675 1.999999999998936
  endloop
endfacet
facet normal 1.0 0.0 0.0
  outer loop
    vertex 133.99999999999997 61.463893547283675 31.999999999998938
    vertex 133.99999999999997 64.46389354728367 1.999999999998936
    vertex 133.99999999999997 64.46389354728367 31.999999999998938
  endloop
endfacet
facet normal 1.0 0.0 0.0
  outer loop
    vertex 136.99999999999997 61.463893547283675 1.999999999998936
    vertex 136.99999999999997 59.963893547283675 31.999999999998938
    vertex 136.99999999999997 59.963893547283675 1.999999999998936
  endloop
endfacet
facet normal 1.0 0.0 0.0
  outer loop
    vertex 136.99999999999997 59.963893547283675 31.999999999998938
    vertex 136.99999999999997 61.463893547283675 1.999999999998936
    vertex 136.99999999999997 61.463893547283675 31.999999999998938
  endloop
endfacet
facet normal 0.0 0.0 1.0
  outer loop
    vertex 18.0 13.000000000000002 60.000000000000455
    vertex 19.0 14.0 60.000000000000455
    vertex 18.0 34.0 60.000000000000455
  endloop
endfacet
facet normal 0.0 0.0 1.0
  outer loop
    vertex 19.0 14.0 60.000000000000455
    vertex 18.0 13.000000000000002 60.000000000000455
    vertex 144.0 13.000000000000002 60.000000000000455
  endloop
endfacet
facet normal 0.0 0.0 1.0
  outer loop
    vertex 19.0 14.0 60.000000000000455
    vertex 144.0 13.000000000000002 60.000000000000455
    vertex 143.0 14.0 60.000000000000455
  endloop
endfacet
facet normal 0.0 0.0 1.0
  outer loop
    vertex 143.0 14.0 60.000000000000455
    vertex 144.0 13.000000000000002 60.000000000000455
    vertex 143.0 34.0 60.000000000000455
  endloop
endfacet
facet normal 0.0 0.0 1.0
  outer loop
    vertex 143.0 34.0 60.000000000000455
    vertex 144.0 13.000000000000002 60.000000000000455
    vertex 144.0 34.0 60.000000000000455
  endloop
endfacet
facet normal 0.0 0.0 1.0
  outer loop
    vertex 19.0 34.0 60.000000000000455
    vertex 18.0 34.0 60.000000000000455
    vertex 19.0 14.0 60.000000000000455
  endloop
endfacet
facet normal 0.0 1.0 0.0
  outer loop
    vertex 132.5 64.46389354728367 31.999999999998938
    vertex 133.99999999999997 64.46389354728367 1.999999999998936
    vertex 132.5 64.46389354728367 1.999999999998936
  endloop
endfacet
facet normal 0.0 1.0 0.0
  outer loop
    vertex 133.99999999999997 64.46389354728367 1.999999999998936
    vertex 132.5 64.46389354728367 31.999999999998938
    vertex 133.99999999999997 64.46389354728367 31.999999999998938
  endloop
endfacet
endsolid 압출기정리220203
